<svg xmlns="http://www.w3.org/2000/svg" viewBox="0 0 1024 1024" width="512" height="512"><defs><linearGradient id="tg" gradientUnits="userSpaceOnUse" x1="0" y1="0" x2="1024" y2="1024"><stop offset="0" stop-color="#FF7E5F"></stop><stop offset="1" stop-color="#D64570"></stop></linearGradient></defs><rect width="1024" height="1024" rx="224" fill="#FFFFFF"></rect><g transform="translate(187.4,628.5) scale(1.0886)"><path d="M233.600-106.800L233.600-106.800Q233.600-74 219-49Q204.400-24 179.800-10Q155.200 4 124.800 4L124.800 4Q94.400 4 69.800-10Q45.200-24 30.600-49Q16-74 16-106.800L16-106.800Q16-139.600 30.600-164.600Q45.200-189.600 69.800-203.800Q94.400-218 124.800-218L124.800-218Q155.200-218 179.800-203.800Q204.400-189.600 219-164.600Q233.600-139.600 233.600-106.800ZM185.600-106.800L185.600-106.800Q185.600-127.200 177.400-142.200Q169.200-157.200 155.400-165.600Q141.600-174 124.800-174L124.800-174Q108-174 94.200-165.600Q80.400-157.200 72.200-142.200Q64-127.200 64-106.800L64-106.800Q64-86.800 72.200-71.800Q80.400-56.800 94.200-48.400Q108-40 124.800-40L124.800-40Q141.600-40 155.400-48.400Q169.200-56.800 177.400-71.800Q185.600-86.800 185.600-106.800ZM376-218L376-218Q408-218 423.200-202.800L423.200-202.800Q434.800-190.800 440.400-174L440.400-174Q445.200-182.800 454.400-192.800L454.400-192.800Q464.400-203.200 478.600-210.600Q492.800-218 510.400-218L510.400-218Q539.200-218 554.200-205.600Q569.200-193.200 574.800-172.600Q580.400-152 580.400-126.800L580.400-126.800L580.400-24.400Q580.400-14 573.600-7Q566.800 0 556.400 0Q546 0 539.200-7Q532.400-14 532.400-24.400L532.400-24.400L532.400-126.800Q532.400-140 529.200-150.600Q526-161.200 517.600-167.600Q509.200-174 493.600-174L493.600-174Q478.400-174 467.600-167.600Q456.800-161.200 451.400-150.600Q446-140 446-126.800L446-126.800L446-24.400Q446-14 439.200-7Q432.400 0 422 0Q411.600 0 404.800-7Q398-14 398-24.400L398-24.400L398-126.800Q398-140 394.800-150.600Q391.600-161.200 383.200-167.600Q374.800-174 359.200-174L359.200-174Q344-174 333.200-167.600Q322.400-161.200 317-150.600Q311.600-140 311.600-126.800L311.600-126.800L311.600-24.400Q311.600-14 304.800-7Q298 0 287.600 0Q277.200 0 270.400-7Q263.600-14 263.600-24.400L263.600-24.400L263.600-189.600Q263.600-200 270.400-207Q277.200-214 287.600-214Q298-214 304.800-207Q311.600-200 311.600-189.600L311.600-189.600L311.600-183.200Q313.600-185.600 315.600-188.400L315.600-188.400Q322-196 331.200-202.800Q340.400-209.600 351.600-213.800Q362.800-218 376-218Z" fill="url(#tg)"></path></g></svg>