<svg xmlns="http://www.w3.org/2000/svg" viewBox="-8.0 -320.0 1176.4 348.0" width="600" height="177"><defs></defs><path d="M233.600-106.800L233.600-106.800Q233.600-74 219-49Q204.400-24 179.800-10Q155.200 4 124.800 4L124.800 4Q94.400 4 69.800-10Q45.200-24 30.600-49Q16-74 16-106.800L16-106.800Q16-139.600 30.600-164.600Q45.200-189.600 69.800-203.800Q94.400-218 124.800-218L124.800-218Q155.200-218 179.800-203.800Q204.400-189.600 219-164.600Q233.600-139.600 233.600-106.800ZM185.600-106.800L185.600-106.800Q185.600-127.200 177.400-142.200Q169.200-157.200 155.400-165.600Q141.600-174 124.800-174L124.800-174Q108-174 94.200-165.600Q80.400-157.200 72.200-142.200Q64-127.200 64-106.800L64-106.800Q64-86.800 72.200-71.800Q80.400-56.800 94.200-48.400Q108-40 124.800-40L124.800-40Q141.600-40 155.400-48.400Q169.200-56.800 177.400-71.800Q185.600-86.800 185.600-106.800ZM380-218L380-218Q412-218 427.200-202.800L427.200-202.800Q438.800-190.800 444.400-174L444.400-174Q449.200-182.800 458.400-192.800L458.400-192.800Q468.400-203.200 482.600-210.600Q496.800-218 514.400-218L514.400-218Q543.200-218 558.200-205.600Q573.200-193.200 578.800-172.600Q584.400-152 584.400-126.800L584.400-126.800L584.400-24.400Q584.400-14 577.600-7Q570.800 0 560.400 0Q550 0 543.200-7Q536.400-14 536.400-24.400L536.400-24.400L536.400-126.800Q536.400-140 533.200-150.600Q530-161.200 521.600-167.600Q513.200-174 497.600-174L497.600-174Q482.400-174 471.600-167.600Q460.800-161.200 455.400-150.600Q450-140 450-126.800L450-126.800L450-24.400Q450-14 443.200-7Q436.400 0 426 0Q415.600 0 408.800-7Q402-14 402-24.400L402-24.400L402-126.800Q402-140 398.800-150.600Q395.600-161.200 387.200-167.600Q378.800-174 363.200-174L363.200-174Q348-174 337.200-167.600Q326.400-161.200 321-150.600Q315.600-140 315.600-126.800L315.600-126.800L315.600-24.400Q315.600-14 308.800-7Q302 0 291.600 0Q281.200 0 274.400-7Q267.600-14 267.600-24.400L267.600-24.400L267.600-189.600Q267.600-200 274.400-207Q281.200-214 291.600-214Q302-214 308.800-207Q315.600-200 315.600-189.600L315.600-189.600L315.600-183.200Q317.600-185.600 319.600-188.400L319.600-188.400Q326-196 335.200-202.800Q344.400-209.600 355.600-213.800Q366.800-218 380-218ZM803.600-218L803.600-218Q814.000-218 820.800-211.200Q827.600-204.400 827.600-193.600L827.600-193.600L827.600-24.400Q827.600-14 820.800-7Q814.000 0 803.600 0Q793.200 0 786.400-7.200L786.400-7.200Q779.600-14 779.600-24L779.600-24Q774.800-18.400 767.600-13.200L767.600-13.200Q758.000-6 745.000-1Q732.000 4 716.800 4L716.800 4Q689.200 4 666.800-10.200Q644.400-24.400 631.400-49.400Q618.400-74.400 618.400-106.800L618.400-106.800Q618.400-139.600 631.400-164.600Q644.400-189.600 666.400-203.800Q688.400-218 715.200-218L715.200-218Q732.400-218 746.800-212.800Q761.200-207.600 772.000-199.600L772.000-199.600Q776.000-196.400 779.600-193.200L779.600-193.200L779.600-193.600Q779.600-204 786.400-211Q793.200-218 803.600-218ZM722.800-40L722.800-40Q740.400-40 753.600-48.800Q766.800-57.600 774.200-72.800Q781.600-88 781.600-106.800L781.600-106.800Q781.600-126 774.200-141.200Q766.800-156.400 753.600-165.200Q740.400-174 722.800-174L722.800-174Q705.600-174 692.400-165.200Q679.200-156.400 671.800-141.200Q664.400-126 664.400-106.800L664.400-106.800Q664.400-88 671.800-72.800Q679.200-57.600 692.400-48.800Q705.600-40 722.800-40ZM984.000-218L984.000-218Q1012.800-218 1027.800-205.600Q1042.800-193.200 1048.400-172.600Q1054.000-152 1054.000-126.800L1054.000-126.800L1054.000-24.400Q1054.000-14 1047.200-7Q1040.400 0 1030.000 0Q1019.600 0 1012.800-7Q1006.000-14 1006.000-24.400L1006.000-24.400L1006.000-126.800Q1006.000-140 1002.800-150.600Q999.600-161.200 991.200-167.600Q982.800-174 967.200-174L967.200-174Q952.000-174 941.200-167.600Q930.400-161.200 925.000-150.600Q919.600-140 919.600-126.800L919.600-126.800L919.600-24.400Q919.600-14 912.800-7Q906.000 0 895.600 0Q885.200 0 878.400-7Q871.600-14 871.600-24.400L871.600-24.400L871.600-271.600Q871.600-282 878.400-289Q885.200-296 895.600-296Q906.000-296 912.800-289Q919.600-282 919.600-271.600L919.600-271.600L919.600-183.200Q921.600-185.600 923.600-188.400L923.600-188.400Q930.000-196 939.200-202.800Q948.400-209.600 959.600-213.800Q970.800-218 984.000-218ZM1143.200-189.600L1143.200-24.400Q1143.200-14 1136.400-7Q1129.600 0 1119.200 0L1119.200 0Q1108.800 0 1102.000-7Q1095.200-14 1095.200-24.400L1095.200-24.400L1095.200-189.600Q1095.200-200 1102.000-207Q1108.800-214 1119.200-214L1119.200-214Q1129.600-214 1136.400-207Q1143.200-200 1143.200-189.600L1143.200-189.600ZM1118.800-240L1118.800-240Q1105.200-240 1099.600-244.400Q1094.000-248.800 1094.000-260L1094.000-260L1094.000-267.600Q1094.000-279.200 1100.200-283.400Q1106.400-287.600 1119.200-287.600L1119.200-287.600Q1133.200-287.600 1138.800-283.200Q1144.400-278.800 1144.400-267.600L1144.400-267.600L1144.400-260Q1144.400-248.400 1138.400-244.200Q1132.400-240 1118.800-240Z" fill="#FFFFFF"></path></svg>