<svg xmlns="http://www.w3.org/2000/svg" viewBox="-24.0 -336.0 1208.4 610.2" width="600" height="303"><defs><linearGradient id="og" gradientUnits="userSpaceOnUse" x1="16" y1="-296" x2="1144.4000000000003" y2="4"><stop offset="0" stop-color="#FF7E5F"></stop><stop offset="1" stop-color="#D64570"></stop></linearGradient></defs><path d="M233.600-106.800L233.600-106.800Q233.600-74 219-49Q204.400-24 179.800-10Q155.200 4 124.800 4L124.800 4Q94.400 4 69.800-10Q45.200-24 30.600-49Q16-74 16-106.800L16-106.800Q16-139.600 30.600-164.600Q45.200-189.600 69.800-203.800Q94.400-218 124.800-218L124.800-218Q155.200-218 179.800-203.800Q204.400-189.600 219-164.600Q233.600-139.600 233.600-106.800ZM185.600-106.800L185.600-106.800Q185.600-127.200 177.400-142.200Q169.200-157.200 155.400-165.600Q141.600-174 124.800-174L124.800-174Q108-174 94.200-165.600Q80.400-157.200 72.200-142.200Q64-127.200 64-106.800L64-106.800Q64-86.800 72.200-71.800Q80.400-56.800 94.200-48.400Q108-40 124.800-40L124.800-40Q141.600-40 155.400-48.400Q169.200-56.800 177.400-71.800Q185.600-86.800 185.600-106.800ZM380-218L380-218Q412-218 427.200-202.800L427.200-202.800Q438.800-190.800 444.400-174L444.400-174Q449.200-182.800 458.400-192.800L458.400-192.800Q468.400-203.200 482.600-210.600Q496.800-218 514.400-218L514.400-218Q543.200-218 558.200-205.600Q573.200-193.200 578.800-172.600Q584.400-152 584.400-126.800L584.400-126.800L584.400-24.400Q584.400-14 577.600-7Q570.800 0 560.400 0Q550 0 543.200-7Q536.400-14 536.400-24.400L536.400-24.400L536.400-126.800Q536.400-140 533.200-150.600Q530-161.200 521.600-167.600Q513.200-174 497.600-174L497.600-174Q482.400-174 471.600-167.600Q460.800-161.200 455.400-150.600Q450-140 450-126.800L450-126.800L450-24.400Q450-14 443.200-7Q436.400 0 426 0Q415.600 0 408.800-7Q402-14 402-24.400L402-24.400L402-126.800Q402-140 398.800-150.600Q395.600-161.200 387.200-167.600Q378.800-174 363.200-174L363.200-174Q348-174 337.200-167.600Q326.400-161.200 321-150.600Q315.600-140 315.600-126.800L315.600-126.800L315.600-24.400Q315.600-14 308.800-7Q302 0 291.600 0Q281.200 0 274.400-7Q267.600-14 267.600-24.400L267.600-24.400L267.600-189.600Q267.600-200 274.400-207Q281.200-214 291.600-214Q302-214 308.800-207Q315.600-200 315.600-189.600L315.600-189.600L315.600-183.200Q317.600-185.600 319.600-188.400L319.600-188.400Q326-196 335.200-202.800Q344.400-209.600 355.600-213.800Q366.800-218 380-218ZM803.600-218L803.600-218Q814.000-218 820.800-211.200Q827.600-204.400 827.600-193.600L827.600-193.600L827.600-24.400Q827.600-14 820.800-7Q814.000 0 803.600 0Q793.200 0 786.400-7.200L786.400-7.200Q779.600-14 779.600-24L779.600-24Q774.800-18.400 767.600-13.200L767.600-13.200Q758.000-6 745.000-1Q732.000 4 716.800 4L716.800 4Q689.200 4 666.800-10.200Q644.400-24.400 631.400-49.400Q618.400-74.400 618.400-106.800L618.400-106.800Q618.400-139.600 631.400-164.600Q644.400-189.600 666.400-203.800Q688.400-218 715.200-218L715.200-218Q732.400-218 746.800-212.800Q761.200-207.600 772.000-199.600L772.000-199.600Q776.000-196.400 779.600-193.200L779.600-193.200L779.600-193.600Q779.600-204 786.400-211Q793.200-218 803.600-218ZM722.800-40L722.800-40Q740.400-40 753.600-48.800Q766.800-57.600 774.200-72.800Q781.600-88 781.600-106.800L781.600-106.800Q781.600-126 774.200-141.200Q766.800-156.400 753.600-165.200Q740.400-174 722.800-174L722.800-174Q705.600-174 692.400-165.200Q679.200-156.400 671.800-141.200Q664.400-126 664.400-106.800L664.400-106.800Q664.400-88 671.800-72.800Q679.200-57.600 692.400-48.800Q705.600-40 722.800-40ZM984.000-218L984.000-218Q1012.800-218 1027.800-205.600Q1042.800-193.200 1048.400-172.600Q1054.000-152 1054.000-126.800L1054.000-126.800L1054.000-24.400Q1054.000-14 1047.200-7Q1040.400 0 1030.000 0Q1019.600 0 1012.800-7Q1006.000-14 1006.000-24.400L1006.000-24.400L1006.000-126.800Q1006.000-140 1002.800-150.600Q999.600-161.200 991.200-167.600Q982.800-174 967.200-174L967.200-174Q952.000-174 941.200-167.600Q930.400-161.200 925.000-150.600Q919.600-140 919.600-126.800L919.600-126.800L919.600-24.400Q919.600-14 912.800-7Q906.000 0 895.600 0Q885.200 0 878.400-7Q871.600-14 871.600-24.400L871.600-24.400L871.600-271.600Q871.600-282 878.400-289Q885.200-296 895.600-296Q906.000-296 912.800-289Q919.600-282 919.600-271.600L919.600-271.600L919.600-183.200Q921.600-185.600 923.600-188.400L923.600-188.400Q930.000-196 939.200-202.800Q948.400-209.600 959.600-213.800Q970.800-218 984.000-218ZM1143.200-189.600L1143.200-24.400Q1143.200-14 1136.400-7Q1129.600 0 1119.200 0L1119.200 0Q1108.800 0 1102.000-7Q1095.200-14 1095.200-24.400L1095.200-24.400L1095.200-189.600Q1095.200-200 1102.000-207Q1108.800-214 1119.200-214L1119.200-214Q1129.600-214 1136.400-207Q1143.200-200 1143.200-189.600L1143.200-189.600ZM1118.800-240L1118.800-240Q1105.200-240 1099.600-244.400Q1094.000-248.800 1094.000-260L1094.000-260L1094.000-267.600Q1094.000-279.200 1100.200-283.400Q1106.400-287.600 1119.200-287.600L1119.200-287.600Q1133.200-287.600 1138.800-283.200Q1144.400-278.800 1144.400-267.600L1144.400-267.600L1144.400-260Q1144.400-248.400 1138.400-244.200Q1132.400-240 1118.800-240Z" fill="url(#og)"></path><g transform="translate(163.3,215.0)"><path d="M17.856-9.408L44.928-9.408Q46.944-9.408 48.336-8.064Q49.728-6.720 49.728-4.704Q49.728-2.688 48.336-1.344Q46.944 0 44.928 0L44.928 0L12.672 0Q10.560 0 9.168-1.392Q7.776-2.784 7.776-4.896L7.776-4.896L7.776-62.304Q7.776-64.416 9.216-65.808Q10.656-67.200 12.960-67.200L12.960-67.200Q14.880-67.200 16.368-65.808Q17.856-64.416 17.856-62.304L17.856-62.304L17.856-9.408ZM108.096-25.248L108.096-25.248Q108.096-17.568 104.736-11.664Q101.376-5.760 95.616-2.400Q89.856 0.960 82.656 0.960L82.656 0.960Q75.456 0.960 69.696-2.400Q63.936-5.760 60.528-11.664Q57.120-17.568 57.120-25.248L57.120-25.248Q57.120-33.024 60.528-38.928Q63.936-44.832 69.696-48.240Q75.456-51.648 82.656-51.648L82.656-51.648Q89.856-51.648 95.616-48.240Q101.376-44.832 104.736-38.928Q108.096-33.024 108.096-25.248ZM98.496-25.248L98.496-25.248Q98.496-30.528 96.384-34.416Q94.272-38.304 90.672-40.560Q87.072-42.816 82.656-42.816L82.656-42.816Q78.240-42.816 74.592-40.560Q70.944-38.304 68.832-34.416Q66.720-30.528 66.720-25.248L66.720-25.248Q66.720-20.160 68.832-16.224Q70.944-12.288 74.592-10.080Q78.240-7.872 82.656-7.872L82.656-7.872Q87.072-7.872 90.672-10.080Q94.272-12.288 96.384-16.224Q98.496-20.160 98.496-25.248ZM119.616-50.976L119.616-50.976Q121.056-50.976 122.352-50.208Q123.648-49.440 124.224-47.904L124.224-47.904L138.528-14.784L152.736-47.808Q154.080-50.976 157.056-50.880L157.056-50.880Q158.976-50.880 160.272-49.680Q161.568-48.480 161.568-46.560L161.568-46.560Q161.568-45.984 161.376-45.360Q161.184-44.736 160.896-44.160L160.896-44.160L142.656-3.072Q141.408-0.192 138.528 0L138.528 0Q137.088 0.192 135.696-0.624Q134.304-1.440 133.536-3.072L133.536-3.072L115.392-44.160Q115.200-44.544 115.008-45.168Q114.816-45.792 114.816-46.656L114.816-46.656Q114.816-48.096 116.112-49.536Q117.408-50.976 119.616-50.976ZM194.400 0.960L194.400 0.960Q186.432 0.960 180.576-2.352Q174.720-5.664 171.504-11.472Q168.288-17.280 168.288-24.768L168.288-24.768Q168.288-33.216 171.696-39.216Q175.104-45.216 180.576-48.432Q186.048-51.648 192.192-51.648L192.192-51.648Q196.896-51.648 201.120-49.776Q205.344-47.904 208.656-44.592Q211.968-41.280 213.888-36.816Q215.808-32.352 215.904-27.072L215.904-27.072Q215.808-25.152 214.368-23.904Q212.928-22.656 211.008-22.656L211.008-22.656L177.696-22.656Q178.080-19.008 179.712-16.128L179.712-16.128Q181.920-12.192 185.664-10.032Q189.408-7.872 193.920-7.872L193.920-7.872Q197.472-7.872 199.776-8.592Q202.080-9.312 203.616-10.368Q205.152-11.424 206.304-12.384L206.304-12.384Q207.744-13.248 209.184-13.248L209.184-13.248Q210.912-13.248 212.064-12.048Q213.216-10.848 213.216-9.216L213.216-9.216Q213.216-7.104 211.104-5.376L211.104-5.376Q208.512-2.880 203.952-0.960Q199.392 0.960 194.400 0.960ZM177.984-30.816L177.984-30.816L205.632-30.816L205.632-31.488Q205.440-34.848 203.424-37.392Q201.408-39.936 198.432-41.328Q195.456-42.720 192.192-42.720L192.192-42.720Q189.312-42.720 186.672-41.808Q184.032-40.896 181.968-38.880Q179.904-36.864 178.752-33.600L178.752-33.600Q178.272-32.256 177.984-30.816ZM276.960 0.960L276.960 0.960Q268.992 0.960 263.136-2.352Q257.280-5.664 254.064-11.472Q250.848-17.280 250.848-24.768L250.848-24.768Q250.848-33.216 254.256-39.216Q257.664-45.216 263.136-48.432Q268.608-51.648 274.752-51.648L274.752-51.648Q279.456-51.648 283.680-49.776Q287.904-47.904 291.216-44.592Q294.528-41.280 296.448-36.816Q298.368-32.352 298.464-27.072L298.464-27.072Q298.368-25.152 296.928-23.904Q295.488-22.656 293.568-22.656L293.568-22.656L260.256-22.656Q260.640-19.008 262.272-16.128L262.272-16.128Q264.480-12.192 268.224-10.032Q271.968-7.872 276.480-7.872L276.480-7.872Q280.032-7.872 282.336-8.592Q284.640-9.312 286.176-10.368Q287.712-11.424 288.864-12.384L288.864-12.384Q290.304-13.248 291.744-13.248L291.744-13.248Q293.472-13.248 294.624-12.048Q295.776-10.848 295.776-9.216L295.776-9.216Q295.776-7.104 293.664-5.376L293.664-5.376Q291.072-2.880 286.512-0.960Q281.952 0.960 276.960 0.960ZM260.544-30.816L260.544-30.816L288.192-30.816L288.192-31.488Q288-34.848 285.984-37.392Q283.968-39.936 280.992-41.328Q278.016-42.720 274.752-42.720L274.752-42.720Q271.872-42.720 269.232-41.808Q266.592-40.896 264.528-38.880Q262.464-36.864 261.312-33.600L261.312-33.600Q260.832-32.256 260.544-30.816ZM309.984-50.976L309.984-50.976Q311.424-50.976 312.720-50.208Q314.016-49.440 314.592-47.904L314.592-47.904L328.896-14.784L343.104-47.808Q344.448-50.976 347.424-50.880L347.424-50.880Q349.344-50.880 350.640-49.680Q351.936-48.480 351.936-46.560L351.936-46.560Q351.936-45.984 351.744-45.360Q351.552-44.736 351.264-44.160L351.264-44.160L333.024-3.072Q331.776-0.192 328.896 0L328.896 0Q327.456 0.192 326.064-0.624Q324.672-1.440 323.904-3.072L323.904-3.072L305.760-44.160Q305.568-44.544 305.376-45.168Q305.184-45.792 305.184-46.656L305.184-46.656Q305.184-48.096 306.480-49.536Q307.776-50.976 309.984-50.976ZM384.768 0.960L384.768 0.960Q376.800 0.960 370.944-2.352Q365.088-5.664 361.872-11.472Q358.656-17.280 358.656-24.768L358.656-24.768Q358.656-33.216 362.064-39.216Q365.472-45.216 370.944-48.432Q376.416-51.648 382.560-51.648L382.560-51.648Q387.264-51.648 391.488-49.776Q395.712-47.904 399.024-44.592Q402.336-41.280 404.256-36.816Q406.176-32.352 406.272-27.072L406.272-27.072Q406.176-25.152 404.736-23.904Q403.296-22.656 401.376-22.656L401.376-22.656L368.064-22.656Q368.448-19.008 370.080-16.128L370.080-16.128Q372.288-12.192 376.032-10.032Q379.776-7.872 384.288-7.872L384.288-7.872Q387.840-7.872 390.144-8.592Q392.448-9.312 393.984-10.368Q395.520-11.424 396.672-12.384L396.672-12.384Q398.112-13.248 399.552-13.248L399.552-13.248Q401.280-13.248 402.432-12.048Q403.584-10.848 403.584-9.216L403.584-9.216Q403.584-7.104 401.472-5.376L401.472-5.376Q398.880-2.880 394.320-0.960Q389.760 0.960 384.768 0.960ZM368.352-30.816L368.352-30.816L396.000-30.816L396.000-31.488Q395.808-34.848 393.792-37.392Q391.776-39.936 388.800-41.328Q385.824-42.720 382.560-42.720L382.560-42.720Q379.680-42.720 377.040-41.808Q374.400-40.896 372.336-38.880Q370.272-36.864 369.120-33.600L369.120-33.600Q368.640-32.256 368.352-30.816ZM421.920 0L421.920 0Q419.808 0 418.464-1.392Q417.120-2.784 417.120-4.896L417.120-4.896L417.120-45.600Q417.120-47.712 418.464-49.104Q419.808-50.496 421.920-50.496L421.920-50.496Q423.936-50.496 425.328-49.104Q426.720-47.712 426.720-45.600L426.720-45.600L426.720-41.568Q427.296-42.816 428.160-43.968L428.160-43.968Q429.696-46.272 431.904-48Q434.112-49.728 436.848-50.688Q439.584-51.648 442.560-51.648L442.560-51.648Q445.056-51.648 446.880-50.304Q448.704-48.960 448.704-46.944L448.704-46.944Q448.704-44.352 447.360-43.152Q446.016-41.952 444.384-41.952L444.384-41.952Q442.944-41.952 441.600-42.576Q440.256-43.200 438.432-43.200L438.432-43.200Q436.416-43.200 434.304-42.144Q432.192-41.088 430.464-39.024Q428.736-36.960 427.728-34.176Q426.720-31.392 426.720-27.936L426.720-27.936L426.720-4.896Q426.720-2.784 425.328-1.392Q423.936 0 421.920 0ZM494.784-50.880L494.784-50.880Q496.896-50.880 498.240-49.488Q499.584-48.096 499.584-45.984L499.584-45.984L499.584-4.704Q499.584 3.744 496.368 9.024Q493.152 14.304 487.728 16.752Q482.304 19.200 475.488 19.200L475.488 19.200Q472.032 19.200 468.576 18.576Q465.120 17.952 462.912 16.800L462.912 16.800Q460.608 15.744 459.648 14.208Q458.688 12.672 459.360 10.848L459.360 10.848Q460.032 8.544 461.664 7.728Q463.296 6.912 465.024 7.584L465.024 7.584Q466.656 8.256 469.344 9.312Q472.032 10.368 475.488 10.368L475.488 10.368Q480.192 10.368 483.456 8.832Q486.720 7.296 488.400 4.032Q490.080 0.768 490.080-4.416L490.080-4.416L490.080-6.144Q489.024-4.608 487.584-3.456L487.584-3.456Q485.088-1.344 481.680-0.192Q478.272 0.960 474.144 0.960L474.144 0.960Q468.864 0.960 465.072-1.392Q461.280-3.744 459.264-7.920Q457.248-12.096 457.248-17.472L457.248-17.472L457.248-45.984Q457.248-48.096 458.592-49.488Q459.936-50.880 462.048-50.880L462.048-50.880Q464.064-50.880 465.456-49.488Q466.848-48.096 466.848-45.984L466.848-45.984L466.848-20.064Q466.848-13.728 469.632-10.800Q472.416-7.872 477.888-7.872L477.888-7.872Q481.536-7.872 484.224-9.408Q486.912-10.944 488.448-13.680Q489.984-16.416 489.984-20.064L489.984-20.064L489.984-45.984Q489.984-48.096 491.376-49.488Q492.768-50.880 494.784-50.880ZM565.152-51.360L565.152-51.360Q571.872-51.360 577.104-48Q582.336-44.640 585.408-38.832Q588.480-33.024 588.480-25.344Q588.480-17.664 585.408-11.760Q582.336-5.856 577.152-2.496Q571.968 0.864 565.440 0.864L565.440 0.864Q561.792 0.864 558.528-0.288Q555.264-1.440 552.768-3.360L552.768-3.360Q550.752-4.800 549.312-6.528L549.312-6.528L549.312 14.304Q549.312 16.416 547.920 17.808Q546.528 19.200 544.512 19.200L544.512 19.200Q542.400 19.200 541.056 17.808Q539.712 16.416 539.712 14.304L539.712 14.304L539.712-45.792Q539.712-47.808 541.056-49.248Q542.400-50.688 544.512-50.688L544.512-50.688Q546.528-50.688 547.920-49.248Q549.312-47.808 549.312-45.792L549.312-45.792L549.312-43.488Q549.408-43.584 549.600-43.872L549.600-43.872Q551.136-45.792 553.488-47.520Q555.840-49.248 558.864-50.304Q561.888-51.360 565.152-51.360ZM564.096-42.528L564.096-42.528Q559.488-42.528 556.080-40.272Q552.672-38.016 550.752-34.176Q548.832-30.336 548.832-25.344L548.832-25.344Q548.832-20.448 550.752-16.464Q552.672-12.480 556.080-10.224Q559.488-7.968 564.096-7.968L564.096-7.968Q568.608-7.968 571.968-10.224Q575.328-12.480 577.296-16.464Q579.264-20.448 579.264-25.344Q579.264-30.240 577.296-34.128Q575.328-38.016 571.968-40.272Q568.608-42.528 564.096-42.528ZM624.768-51.360L624.768-51.360Q631.392-51.360 635.040-48.528Q638.688-45.696 640.176-40.896Q641.664-36.096 641.664-30.336L641.664-30.336L641.664-4.896Q641.664-2.784 640.272-1.392Q638.880 0 636.864 0L636.864 0Q634.752 0 633.408-1.392Q632.064-2.784 632.064-4.896L632.064-4.896L632.064-30.336Q632.064-33.696 631.152-36.480Q630.240-39.264 627.984-40.896Q625.728-42.528 621.696-42.528L621.696-42.528Q617.952-42.528 615.024-40.896Q612.096-39.264 610.512-36.480Q608.928-33.696 608.928-30.336L608.928-30.336L608.928-4.896Q608.928-2.784 607.536-1.392Q606.144 0 604.128 0L604.128 0Q602.016 0 600.672-1.392Q599.328-2.784 599.328-4.896L599.328-4.896L599.328-66.144Q599.328-68.256 600.672-69.648Q602.016-71.040 604.128-71.040L604.128-71.040Q606.144-71.040 607.536-69.648Q608.928-68.256 608.928-66.144L608.928-66.144L608.928-42.528Q609.216-42.912 609.504-43.296L609.504-43.296Q611.040-45.504 613.392-47.328Q615.744-49.152 618.624-50.256Q621.504-51.360 624.768-51.360ZM696.384-51.264L696.384-51.264Q698.496-51.264 699.840-49.872Q701.184-48.480 701.184-46.368L701.184-46.368L701.184-4.896Q701.184-2.784 699.840-1.392Q698.496 0 696.384 0L696.384 0Q694.368 0 692.976-1.392Q691.584-2.784 691.584-4.896L691.584-4.896L691.584-6.816Q690.336-5.184 688.416-3.648L688.416-3.648Q686.016-1.632 682.752-0.336Q679.488 0.960 675.744 0.960L675.744 0.960Q669.120 0.960 663.840-2.448Q658.560-5.856 655.488-11.808Q652.416-17.760 652.416-25.344L652.416-25.344Q652.416-33.120 655.488-39.024Q658.560-44.928 663.792-48.288Q669.024-51.648 675.456-51.648L675.456-51.648Q679.584-51.648 683.088-50.304Q686.592-48.960 689.184-46.848L689.184-46.848Q690.528-45.696 691.584-44.544L691.584-44.544L691.584-46.368Q691.584-48.384 692.976-49.824Q694.368-51.264 696.384-51.264ZM676.800-7.872L676.800-7.872Q681.312-7.872 684.768-10.176Q688.224-12.480 690.144-16.464Q692.064-20.448 692.064-25.344L692.064-25.344Q692.064-30.336 690.144-34.272Q688.224-38.208 684.768-40.512Q681.312-42.816 676.800-42.816L676.800-42.816Q672.384-42.816 668.976-40.512Q665.568-38.208 663.600-34.272Q661.632-30.336 661.632-25.344L661.632-25.344Q661.632-20.448 663.600-16.464Q665.568-12.480 668.976-10.176Q672.384-7.872 676.800-7.872ZM711.648-7.872L711.648-7.872Q710.784-9.216 710.880-10.992Q710.976-12.768 712.896-14.016L712.896-14.016Q714.240-14.880 715.728-14.736Q717.216-14.592 718.560-13.248L718.560-13.248Q721.248-10.272 724.560-8.544Q727.872-6.816 732.576-6.816L732.576-6.816Q734.496-6.912 736.512-7.440Q738.528-7.968 739.968-9.360Q741.408-10.752 741.408-13.440L741.408-13.440Q741.408-15.840 739.872-17.280Q738.336-18.720 735.840-19.632Q733.344-20.544 730.464-21.312L730.464-21.312Q727.392-22.176 724.272-23.232Q721.152-24.288 718.656-25.968Q716.160-27.648 714.576-30.336Q712.992-33.024 712.992-36.960L712.992-36.960Q712.992-41.472 715.536-44.736Q718.080-48 722.160-49.824Q726.240-51.648 731.040-51.648L731.040-51.648Q733.824-51.648 736.896-50.928Q739.968-50.208 742.848-48.672Q745.728-47.136 747.840-44.640L747.840-44.640Q748.800-43.392 748.944-41.664Q749.088-39.936 747.360-38.592L747.360-38.592Q746.208-37.632 744.576-37.728Q742.944-37.824 741.888-38.784L741.888-38.784Q740.064-41.088 737.184-42.384Q734.304-43.680 730.656-43.680L730.656-43.680Q728.832-43.680 726.864-43.152Q724.896-42.624 723.552-41.280Q722.208-39.936 722.208-37.344L722.208-37.344Q722.208-34.944 723.792-33.504Q725.376-32.064 727.968-31.104Q730.560-30.144 733.632-29.376L733.632-29.376Q736.608-28.608 739.536-27.552Q742.464-26.496 744.816-24.816Q747.168-23.136 748.656-20.496Q750.144-17.856 750.144-13.824L750.144-13.824Q750.144-9.120 747.408-5.808Q744.672-2.496 740.496-0.768Q736.320 0.960 731.712 0.960L731.712 0.960Q726.240 0.960 720.816-1.008Q715.392-2.976 711.648-7.872ZM784.032 0.960L784.032 0.960Q776.064 0.960 770.208-2.352Q764.352-5.664 761.136-11.472Q757.920-17.280 757.920-24.768L757.920-24.768Q757.920-33.216 761.328-39.216Q764.736-45.216 770.208-48.432Q775.680-51.648 781.824-51.648L781.824-51.648Q786.528-51.648 790.752-49.776Q794.976-47.904 798.288-44.592Q801.600-41.280 803.520-36.816Q805.440-32.352 805.536-27.072L805.536-27.072Q805.440-25.152 804.000-23.904Q802.560-22.656 800.640-22.656L800.640-22.656L767.328-22.656Q767.712-19.008 769.344-16.128L769.344-16.128Q771.552-12.192 775.296-10.032Q779.040-7.872 783.552-7.872L783.552-7.872Q787.104-7.872 789.408-8.592Q791.712-9.312 793.248-10.368Q794.784-11.424 795.936-12.384L795.936-12.384Q797.376-13.248 798.816-13.248L798.816-13.248Q800.544-13.248 801.696-12.048Q802.848-10.848 802.848-9.216L802.848-9.216Q802.848-7.104 800.736-5.376L800.736-5.376Q798.144-2.880 793.584-0.960Q789.024 0.960 784.032 0.960ZM767.616-30.816L767.616-30.816L795.264-30.816L795.264-31.488Q795.072-34.848 793.056-37.392Q791.040-39.936 788.064-41.328Q785.088-42.720 781.824-42.720L781.824-42.720Q778.944-42.720 776.304-41.808Q773.664-40.896 771.600-38.880Q769.536-36.864 768.384-33.600L768.384-33.600Q767.904-32.256 767.616-30.816ZM821.088-0.096L820.032-0.096Q817.632-0.096 816.336-1.440Q815.040-2.784 815.040-5.184L815.040-5.184L815.040-6.912Q815.040-9.312 816.336-10.656Q817.632-12 820.032-12L820.032-12L821.088-12Q823.488-12 824.736-10.656Q825.984-9.312 825.984-6.912L825.984-6.912L825.984-5.184Q825.984-2.784 824.736-1.440Q823.488-0.096 821.088-0.096L821.088-0.096Z" fill="#6E5560"></path></g></svg>